999
FreeCAD v0.21 33694 (Git)
  0
SECTION
  2
HEADER
  9
$ACADVER
  1
AC1014
  9
$ACADMAINTVER
 70
     9
  9
$DWGCODEPAGE
  3
ANSI_1252
  9
$TEXTSTYLE
  7
STANDARD
  9
$DIMSTYLE
  2
STANDARD
  9
$DIMTXSTY
  7
STANDARD
  9
$CMLSTYLE
  2
STANDARD
  9
$LUNITS
 70
2
  9
$INSUNITS
 70
4
  9
$PEXTMAX
 10
50
 20
50
 30
50
  9
$PEXTMIN
 10
0
 20
0
 30
0
  9
$HANDSEED
  5
FFFF
  0
ENDSEC
  0
SECTION
  2
CLASSES
  0
CLASS
  1
ACDBDICTIONARYWDFLT
  2
AcDbDictionaryWithDefault
  3
ObjectDBX Classes
 90
        0
280
     0
281
     0
  0
CLASS
  1
XRECORD
  2
AcDbXrecord
  3
ObjectDBX Classes
 90
        0
280
     0
281
     0
  0
CLASS
  1
LWPOLYLINE
  2
AcDbPolyline
  3
ObjectDBX Classes
 90
        0
280
     0
281
     1
  0
ENDSEC
  0
SECTION
  2
TABLES
  0
TABLE
  2
VPORT
  5
20
330
0
100
AcDbSymbolTable
 70
     1
  0
VPORT
  5
21
330
20
100
AcDbSymbolTableRecord
100
AcDbViewportTableRecord
  2
*ACTIVE
 70
     0
  0
ENDTAB
  0
TABLE
  2
LTYPE
  5
22
330
0
100
AcDbSymbolTable
 70
     1
  0
LTYPE
  5
23
330
21
100
AcDbSymbolTableRecord
100
AcDbLinetypeTableRecord
  2
BYBLOCK
 70
     0
  3

 72
    65
 73
     0
 40
0.0
  0
LTYPE
  5
24
330
21
100
AcDbSymbolTableRecord
100
AcDbLinetypeTableRecord
  2
BYLAYER
 70
     0
  3

 72
    65
 73
     0
 40
0.0
  0
LTYPE
  5
25
330
21
100
AcDbSymbolTableRecord
100
AcDbLinetypeTableRecord
  2
CONTINUOUS
 70
     0
  3
Solid line
 72
    65
 73
     0
 40
0.0
  0
ENDTAB
  0
TABLE
  2
LAYER
  5
A45
330
0
100
AcDbSymbolTable
 70
9
  0
LAYER
  5
A46
330
A45
100
AcDbSymbolTableRecord
100
AcDbLayerTableRecord
  2
0
 70
   0
 62
   7
  6
CONTINUOUS
  0
LAYER
  5
A47
330
A45
100
AcDbSymbolTableRecord
100
AcDbLayerTableRecord
  2
View
 70
    0
 62
    7
  6
CONTINUOUS
  0
LAYER
  5
A48
330
A45
100
AcDbSymbolTableRecord
100
AcDbLayerTableRecord
  2
ProjItem
 70
    0
 62
    7
  6
CONTINUOUS
  0
LAYER
  5
A49
330
A45
100
AcDbSymbolTableRecord
100
AcDbLayerTableRecord
  2
ProjItem001
 70
    0
 62
    7
  6
CONTINUOUS
  0
LAYER
  5
A4A
330
A45
100
AcDbSymbolTableRecord
100
AcDbLayerTableRecord
  2
ProjItem002
 70
    0
 62
    7
  6
CONTINUOUS
  0
LAYER
  5
A4B
330
A45
100
AcDbSymbolTableRecord
100
AcDbLayerTableRecord
  2
Dimension001
 70
    0
 62
    7
  6
CONTINUOUS
  0
LAYER
  5
A4C
330
A45
100
AcDbSymbolTableRecord
100
AcDbLayerTableRecord
  2
Annotation
 70
    0
 62
    7
  6
CONTINUOUS
  0
LAYER
  5
A4D
330
A45
100
AcDbSymbolTableRecord
100
AcDbLayerTableRecord
  2
Dimension
 70
    0
 62
    7
  6
CONTINUOUS
  0
LAYER
  5
A4E
330
A45
100
AcDbSymbolTableRecord
100
AcDbLayerTableRecord
  2
Annotation001
 70
    0
 62
    7
  6
CONTINUOUS
  0
ENDTAB
  0
TABLE
  2
STYLE
  5
70
330
0
100
AcDbSymbolTable
 70
     2
  0
STYLE
  5
71
330
70
100
AcDbSymbolTableRecord
100
AcDbTextStyleTableRecord
  2
STANDARD
 70
     0
 40
0.0
 41
1.0
 50
0.0
 71
     0
 42
2.5
  3
arial.ttf
  4

  0
STYLE
  5
72
330
70
100
AcDbSymbolTableRecord
100
AcDbTextStyleTableRecord
  2
ANNOTATIVE
 70
     0
 40
0.0
 41
1.0
 50
0.0
 71
     0
 42
2.5
  3
arial.ttf
  4

  0
ENDTAB
  0
TABLE
  2
VIEW
  5
73
330
0
100
AcDbSymbolTable
 70
     0
  0
ENDTAB
  0
TABLE
  2
UCS
  5
74
330
0
100
AcDbSymbolTable
 70
     0
  0
ENDTAB
  0
TABLE
  2
APPID
  5
75
330
0
100
AcDbSymbolTable
 70
     2
  0
APPID
  5
76
330
75
100
AcDbSymbolTableRecord
100
AcDbRegAppTableRecord
  2
ACAD
 70
     0
  0
APPID
  5
77
330
75
100
AcDbSymbolTableRecord
100
AcDbRegAppTableRecord
  2
ACADANNOTATIVE
 70
     0
  0
ENDTAB
  0
TABLE
  2
DIMSTYLE
  5
78
330
0
100
AcDbSymbolTable
 70
     2
  0
DIMSTYLE
105
79
330
78
100
AcDbSymbolTableRecord
100
AcDbDimStyleTableRecord
  2
STANDARD
 70
     0
  3

  4

  5

  6

  7

 40
0.0
 41
2.5
 42
0.625
 43
3.75
 44
1.25
 45
0.0
 46
0.0
 47
0.0
 48
0.0
140
2.5
141
2.5
142
0.0
143
0.03937007874016
144
1.0
145
0.0
146
1.0
147
0.625
 71
     0
 72
     0
 73
     0
 74
     0
 75
     0
 76
     0
 77
     1
 78
     8
170
     0
171
     3
172
     1
173
     0
174
     0
175
     0
176
     0
177
     0
178
     0
270
     2
271
     2
272
     2
273
     2
274
     3
340
71
275
     0
280
     0
281
     0
282
     0
283
     0
284
     8
285
     0
286
     0
287
     3
288
     0
  0
ENDTAB
  0
TABLE
  2
BLOCK_RECORD
  5
A01
330
0
100
AcDbSymbolTable
  70
5
  0
BLOCK_RECORD
  5
A02
330
A01
100
AcDbSymbolTableRecord
100
AcDbBlockTableRecord
  2
*MODEL_SPACE
  0
BLOCK_RECORD
  5
A03
330
A01
100
AcDbSymbolTableRecord
100
AcDbBlockTableRecord
  2
*PAPER_SPACE
  0
BLOCK_RECORD
  5
A32
330
A01
100
AcDbSymbolTableRecord
100
AcDbBlockTableRecord
  2
*Dimension001
  0
BLOCK_RECORD
  5
A3B
330
A01
100
AcDbSymbolTableRecord
100
AcDbBlockTableRecord
  2
*Dimension
  0
ENDTAB
  0
ENDSEC
  0
SECTION
  2
BLOCKS
  0
BLOCK
  5
A04
330
A02
100
AcDbEntity
  8
0
100
AcDbBlockBegin
  2
*MODEL_SPACE
 70
   0
 10
0
 20
0
 30
0
  3
*MODEL_SPACE
  1
 
  0
ENDBLK
  5
A05
330
A02
100
AcDbEntity
  8
0
100
AcDbBlockEnd
  0
BLOCK
  5
A06
330
A03
100
AcDbEntity
 67
1
  8
0
100
AcDbBlockBegin
  2
*PAPER_SPACE
 70
   0
 10
0
 20
0
 30
0
  3
*PAPER_SPACE
  1
 
  0
ENDBLK
  5
A07
330
A03
100
AcDbEntity
 67
    1
  8
0
100
AcDbBlockEnd
  0
BLOCK
  5
A33
330
A32
100
AcDbEntity
  8
Dimension001
100
AcDbBlockBegin
  2
*Dimension001
 70
   1
 10
0
 20
0
 30
0
  3
*Dimension001
  1
 
  0
LINE
  5
A34
330
A32
100
AcDbEntity
  8
Dimension001
100
AcDbLine
 10
174.089
 20
48.777
 30
0
 11
132.771
 21
38.8224
 31
0
  0
TEXT
  5
A35
330
A32
100
AcDbEntity
  8
Dimension001
100
AcDbText
 10
195.622
 20
61.0416
 30
0
 40
3.5
  1
⌀170
  7
STANDARD
 72
1
 11
195.622
 21
61.0416
 31
0
100
AcDbText
  0
SOLID
  5
A36
330
A32
100
AcDbEntity
  8
0
 62
     0
100
AcDbTrace
 10
169.326
 20
47.2008
 30
0
 11
169.13
 21
48.0109
 31
0
 12
174.089
 22
48.777
 32
0
 13
174.089
 23
48.777
 33
0
  0
SOLID
  5
A37
330
A32
100
AcDbEntity
  8
0
 62
     0
100
AcDbTrace
 10
137.73
 20
39.5885
 30
0
 11
137.535
 21
40.3986
 31
0
 12
132.771
 22
38.8224
 32
0
 13
132.771
 23
38.8224
 33
0
  0
ENDBLK
  5
A38
330
A32
100
AcDbEntity
  8
Dimension001
100
AcDbBlockEnd
  0
BLOCK
  5
A3C
330
A3B
100
AcDbEntity
  8
Dimension
100
AcDbBlockBegin
  2
*Dimension
 70
   1
 10
0
 20
0
 30
0
  3
*Dimension
  1
 
  0
LINE
  5
A3D
330
A3B
100
AcDbEntity
  8
Dimension
100
AcDbLine
 10
4.68012
 20
134.411
 30
0
 11
4.68012
 21
154.811
 31
0
  0
LINE
  5
A3E
330
A3B
100
AcDbEntity
  8
Dimension
100
AcDbLine
 10
117.18
 20
134.411
 30
0
 11
117.18
 21
154.811
 31
0
  0
LINE
  5
A3F
330
A3B
100
AcDbEntity
  8
Dimension
100
AcDbLine
 10
117.18
 20
154.811
 30
0
 11
4.68012
 21
154.811
 31
0
  0
TEXT
  5
A40
330
A3B
100
AcDbEntity
  8
Dimension
100
AcDbText
 10
56.7418
 20
149.811
 30
0
 40
3.5
  1
450
  7
STANDARD
 72
1
 11
56.7418
 21
154.811
 31
0
100
AcDbText
  0
SOLID
  5
A41
330
A3B
100
AcDbEntity
  8
0
 62
     0
100
AcDbTrace
 10
112.18
 20
154.395
 30
0
 11
112.18
 21
155.228
 31
0
 12
117.18
 22
154.811
 32
0
 13
117.18
 23
154.811
 33
0
  0
SOLID
  5
A42
330
A3B
100
AcDbEntity
  8
0
 62
     0
100
AcDbTrace
 10
9.68012
 20
154.395
 30
0
 11
9.68012
 21
155.228
 31
0
 12
4.68012
 22
154.811
 32
0
 13
4.68012
 23
154.811
 33
0
  0
ENDBLK
  5
A43
330
A3B
100
AcDbEntity
  8
Dimension
100
AcDbBlockEnd
  0
ENDSEC
  0
SECTION
  2
ENTITIES
  0
ELLIPSE
  5
A08
330
A02
100
AcDbEntity
  8
View
100
AcDbEllipse
 10
13.1123
 20
247.485
 30
0
 11
4.68967
 21
-20.7261
 31
0
 40
0.121434
 41
-0
 42
-5.1344
  0
ELLIPSE
  5
A09
330
A02
100
AcDbEntity
  8
View
100
AcDbEllipse
 10
13.1123
 20
247.485
 30
0
 11
4.68967
 21
-20.7261
 31
0
 40
0.121434
 41
-3.14159
 42
-0
  0
ELLIPSE
  5
A0A
330
A02
100
AcDbEntity
  8
View
100
AcDbEllipse
 10
13.1123
 20
247.485
 30
0
 11
4.68967
 21
-20.7261
 31
0
 40
0.121434
 41
-5.1344
 42
-3.14159
  0
ELLIPSE
  5
A0B
330
A02
100
AcDbEntity
  8
View
100
AcDbEllipse
 10
122.026
 20
272.129
 30
0
 11
4.68967
 21
-20.7261
 31
0
 40
0.121434
 41
-0
 42
-5.1344
  0
ELLIPSE
  5
A0C
330
A02
100
AcDbEntity
  8
View
100
AcDbEllipse
 10
122.026
 20
272.129
 30
0
 11
4.68967
 21
-20.7261
 31
0
 40
0.121434
 41
-5.1344
 42
-3.14159
  0
SPLINE
  5
A0D
330
A02
100
AcDbEntity
  8
View
100
AcDbSpline
210
0
220
0
230
1
 70
8
 71
3
 72
14
 73
10
 74
0
 40
0.749872
 40
0.749872
 40
0.749872
 40
0.749872
 40
0.827584
 40
0.827584
 40
0.827584
 40
0.913792
 40
0.913792
 40
0.913792
 40
1
 40
1
 40
1
 40
1
 10
27.0492
 20
270.514
 30
0
 10
27.1467
 20
270.326
 30
0
 10
27.3989
 20
270.163
 30
0
 10
27.7029
 20
270.057
 30
0
 10
28.0395
 20
269.938
 30
0
 10
28.4328
 20
269.88
 30
0
 10
28.8245
 20
269.872
 30
0
 10
29.2176
 20
269.864
 30
0
 10
29.6122
 20
269.906
 30
0
 10
29.9882
 20
269.991
 30
0
  0
SPLINE
  5
A0E
330
A02
100
AcDbEntity
  8
View
100
AcDbSpline
210
0
220
0
230
1
 70
8
 71
3
 72
23
 73
19
 74
0
 40
0.249052
 40
0.249052
 40
0.249052
 40
0.249052
 40
0.326829
 40
0.326829
 40
0.326829
 40
0.430017
 40
0.430017
 40
0.430017
 40
0.499452
 40
0.499452
 40
0.499452
 40
0.596412
 40
0.596412
 40
0.596412
 40
0.672104
 40
0.672104
 40
0.672104
 40
0.732434
 40
0.732434
 40
0.732434
 40
0.732434
 10
31.8899
 20
271.609
 30
0
 10
31.7923
 20
271.798
 30
0
 10
31.546
 20
271.925
 30
0
 10
31.2492
 20
271.989
 30
0
 10
30.8553
 20
272.075
 30
0
 10
30.3851
 20
272.068
 30
0
 10
29.923
 20
272.021
 30
0
 10
29.6089
 20
271.987
 30
0
 10
29.2999
 20
271.935
 30
0
 10
28.996
 20
271.866
 30
0
 10
28.5747
 20
271.771
 30
0
 10
28.1714
 20
271.646
 30
0
 10
27.8259
 20
271.491
 30
0
 10
27.5574
 20
271.37
 30
0
 10
27.3226
 20
271.229
 30
0
 10
27.169
 20
271.066
 30
0
 10
27.0464
 20
270.936
 30
0
 10
26.9793
 20
270.789
 30
0
 10
27.0052
 20
270.641
 30
0
  0
SPLINE
  5
A0F
330
A02
100
AcDbEntity
  8
View
100
AcDbSpline
210
0
220
0
230
1
 70
8
 71
2
 72
6
 73
3
 74
0
 40
0.732434
 40
0.732434
 40
0.732434
 40
0.749872
 40
0.749872
 40
0.749872
 10
27.0052
 20
270.641
 30
0
 10
27.016
 20
270.577
 30
0
 10
27.0492
 20
270.514
 30
0
  0
SPLINE
  5
A10
330
A02
100
AcDbEntity
  8
View
100
AcDbSpline
210
0
220
0
230
1
 70
8
 71
3
 72
11
 73
7
 74
0
 40
0
 40
0
 40
0
 40
0
 40
0.12994
 40
0.12994
 40
0.12994
 40
0.231676
 40
0.231676
 40
0.231676
 40
0.231676
 10
29.9882
 20
269.991
 30
0
 10
30.5552
 20
270.12
 30
0
 10
31.0872
 20
270.349
 30
0
 10
31.4734
 20
270.661
 30
0
 10
31.7724
 20
270.901
 30
0
 10
31.9807
 20
271.205
 30
0
 10
31.9347
 20
271.477
 30
0
  0
SPLINE
  5
A11
330
A02
100
AcDbEntity
  8
View
100
AcDbSpline
210
0
220
0
230
1
 70
8
 71
2
 72
6
 73
3
 74
0
 40
0.231676
 40
0.231676
 40
0.231676
 40
0.249052
 40
0.249052
 40
0.249052
 10
31.9347
 20
271.477
 30
0
 10
31.9231
 20
271.546
 30
0
 10
31.8899
 20
271.609
 30
0
  0
SPLINE
  5
A12
330
A02
100
AcDbEntity
  8
View
100
AcDbSpline
210
0
220
0
230
1
 70
8
 71
3
 72
20
 73
16
 74
0
 40
0.291236
 40
0.291236
 40
0.291236
 40
0.291236
 40
0.326827
 40
0.326827
 40
0.326827
 40
0.430025
 40
0.430025
 40
0.430025
 40
0.499455
 40
0.499455
 40
0.499455
 40
0.59641
 40
0.59641
 40
0.59641
 40
0.66478
 40
0.66478
 40
0.66478
 40
0.66478
 10
31.7686
 20
270.961
 30
0
 10
31.6615
 20
271.016
 30
0
 10
31.5394
 20
271.058
 30
0
 10
31.4023
 20
271.087
 30
0
 10
31.0086
 20
271.171
 30
0
 10
30.5388
 20
271.163
 30
0
 10
30.0768
 20
271.114
 30
0
 10
29.7628
 20
271.08
 30
0
 10
29.4539
 20
271.028
 30
0
 10
29.1499
 20
270.959
 30
0
 10
28.7286
 20
270.863
 30
0
 10
28.3252
 20
270.739
 30
0
 10
27.9796
 20
270.585
 30
0
 10
27.7368
 20
270.477
 30
0
 10
27.522
 20
270.352
 30
0
 10
27.369
 20
270.21
 30
0
  0
LINE
  5
A13
330
A02
100
AcDbEntity
  8
View
100
AcDbLine
 10
117.337
 20
292.855
 30
0
 11
8.42265
 21
268.211
 31
0
  0
LINE
  5
A14
330
A02
100
AcDbEntity
  8
View
100
AcDbLine
 10
126.716
 20
251.403
 30
0
 11
17.802
 21
226.759
 31
0
  0
SPLINE
  5
A15
330
A02
100
AcDbEntity
  8
ProjItem
100
AcDbSpline
210
0
220
0
230
1
 70
8
 71
1
 72
17
 73
15
 74
0
 40
1.5708
 40
1.5708
 40
1.7952
 40
2.0196
 40
2.24399
 40
2.46839
 40
2.69279
 40
2.91719
 40
3.14159
 40
3.36599
 40
3.59039
 40
3.81479
 40
4.03919
 40
4.26359
 40
4.48799
 40
4.71239
 40
4.71239
 10
4.68012
 20
65.0497
 30
0
 10
4.68012
 20
64.5169
 30
0
 10
4.68012
 20
62.9453
 30
0
 10
4.68012
 20
60.4136
 30
0
 10
4.68012
 20
57.0488
 30
0
 10
4.68012
 20
53.0197
 30
0
 10
4.68012
 20
48.5282
 30
0
 10
4.68012
 20
43.7997
 30
0
 10
4.68012
 20
39.0711
 30
0
 10
4.68012
 20
34.5796
 30
0
 10
4.68012
 20
30.5505
 30
0
 10
4.68012
 20
27.1858
 30
0
 10
4.68012
 20
24.6541
 30
0
 10
4.68012
 20
23.0825
 30
0
 10
4.68012
 20
22.5497
 30
0
  0
SPLINE
  5
A16
330
A02
100
AcDbEntity
  8
ProjItem
100
AcDbSpline
210
0
220
0
230
1
 70
8
 71
1
 72
17
 73
15
 74
0
 40
1.5708
 40
1.5708
 40
1.7952
 40
2.0196
 40
2.24399
 40
2.46839
 40
2.69279
 40
2.91719
 40
3.14159
 40
3.36599
 40
3.59039
 40
3.81479
 40
4.03919
 40
4.26359
 40
4.48799
 40
4.71239
 40
4.71239
 10
117.18
 20
65.0497
 30
0
 10
117.18
 20
64.5169
 30
0
 10
117.18
 20
62.9453
 30
0
 10
117.18
 20
60.4136
 30
0
 10
117.18
 20
57.0488
 30
0
 10
117.18
 20
53.0197
 30
0
 10
117.18
 20
48.5282
 30
0
 10
117.18
 20
43.7997
 30
0
 10
117.18
 20
39.0711
 30
0
 10
117.18
 20
34.5796
 30
0
 10
117.18
 20
30.5505
 30
0
 10
117.18
 20
27.1858
 30
0
 10
117.18
 20
24.6541
 30
0
 10
117.18
 20
23.0825
 30
0
 10
117.18
 20
22.5497
 30
0
  0
SPLINE
  5
A17
330
A02
100
AcDbEntity
  8
ProjItem
100
AcDbSpline
210
0
220
0
230
1
 70
8
 71
3
 72
8
 73
4
 74
0
 40
0.871434
 40
0.871434
 40
0.871434
 40
0.871434
 40
0.996293
 40
0.996293
 40
0.996293
 40
0.996293
 10
23.2762
 20
22.6325
 30
0
 10
23.7543
 20
22.6703
 30
0
 10
24.3196
 20
22.6964
 30
0
 10
24.88
 20
22.6972
 30
0
  0
SPLINE
  5
A18
330
A02
100
AcDbEntity
  8
ProjItem
100
AcDbSpline
210
0
220
0
230
1
 70
8
 71
1
 72
4
 73
2
 74
0
 40
0.999711
 40
0.999711
 40
1
 40
1
 10
24.9262
 20
22.6972
 30
0
 10
24.9301
 20
22.6972
 30
0
  0
SPLINE
  5
A19
330
A02
100
AcDbEntity
  8
ProjItem
100
AcDbSpline
210
0
220
0
230
1
 70
8
 71
3
 72
23
 73
19
 74
0
 40
0.249052
 40
0.249052
 40
0.249052
 40
0.249052
 40
0.326829
 40
0.326829
 40
0.326829
 40
0.430017
 40
0.430017
 40
0.430017
 40
0.499452
 40
0.499452
 40
0.499452
 40
0.596412
 40
0.596412
 40
0.596412
 40
0.672104
 40
0.672104
 40
0.672104
 40
0.749872
 40
0.749872
 40
0.749872
 40
0.749872
 10
27.4301
 20
22.5497
 30
0
 10
27.4321
 20
22.5493
 30
0
 10
27.2729
 20
22.5688
 30
0
 10
27.0374
 20
22.5923
 30
0
 10
26.7251
 20
22.6236
 30
0
 10
26.2985
 20
22.6579
 30
0
 10
25.8546
 20
22.677
 30
0
 10
25.5523
 20
22.6904
 30
0
 10
25.2442
 20
22.6971
 30
0
 10
24.9301
 20
22.6972
 30
0
 10
24.4948
 20
22.6974
 30
0
 10
24.0577
 20
22.6832
 30
0
 10
23.6561
 20
22.6588
 30
0
 10
23.3437
 20
22.6401
 30
0
 10
23.0509
 20
22.615
 30
0
 10
22.8229
 20
22.5923
 30
0
 10
22.5873
 20
22.5688
 30
0
 10
22.428
 20
22.5493
 30
0
 10
22.4301
 20
22.5497
 30
0
  0
SPLINE
  5
A1A
330
A02
100
AcDbEntity
  8
ProjItem
100
AcDbSpline
210
0
220
0
230
1
 70
8
 71
1
 72
4
 73
2
 74
0
 40
0
 40
0
 40
0.00012804
 40
0.00012804
 10
24.9301
 20
22.6972
 30
0
 10
24.9319
 20
22.6972
 30
0
  0
SPLINE
  5
A1B
330
A02
100
AcDbEntity
  8
ProjItem
100
AcDbSpline
210
0
220
0
230
1
 70
8
 71
1
 72
4
 73
2
 74
0
 40
0.00364914
 40
0.00364914
 40
0.0104292
 40
0.0104292
 10
24.9797
 20
22.6972
 30
0
 10
25.0717
 20
22.6968
 30
0
  0
SPLINE
  5
A1C
330
A02
100
AcDbEntity
  8
ProjItem
100
AcDbSpline
210
0
220
0
230
1
 70
8
 71
2
 72
6
 73
3
 74
0
 40
0.010845
 40
0.010845
 40
0.010845
 40
0.0709755
 40
0.0709755
 40
0.0709755
 10
25.0773
 20
22.6967
 30
0
 10
25.4868
 20
22.6937
 30
0
 10
25.8803
 20
22.6759
 30
0
  0
SPLINE
  5
A1D
330
A02
100
AcDbEntity
  8
ProjItem
100
AcDbSpline
210
0
220
0
230
1
 70
8
 71
1
 72
4
 73
2
 74
0
 40
0.0820476
 40
0.0820476
 40
0.0856738
 40
0.0856738
 10
26.0234
 20
22.669
 30
0
 10
26.0697
 20
22.6665
 30
0
  0
SPLINE
  5
A1E
330
A02
100
AcDbEntity
  8
ProjItem
100
AcDbSpline
210
0
220
0
230
1
 70
8
 71
2
 72
6
 73
3
 74
0
 40
0.0860755
 40
0.0860755
 40
0.0860755
 40
0.10622
 40
0.10622
 40
0.10622
 10
26.0748
 20
22.6662
 30
0
 10
26.2032
 20
22.6593
 30
0
 10
26.3264
 20
22.6511
 30
0
  0
SPLINE
  5
A1F
330
A02
100
AcDbEntity
  8
ProjItem
100
AcDbSpline
210
0
220
0
230
1
 70
8
 71
1
 72
4
 73
2
 74
0
 40
0.106621
 40
0.106621
 40
0.106622
 40
0.106622
 10
26.3313
 20
22.6508
 30
0
 10
26.3314
 20
22.6508
 30
0
  0
SPLINE
  5
A20
330
A02
100
AcDbEntity
  8
ProjItem
100
AcDbSpline
210
0
220
0
230
1
 70
8
 71
1
 72
4
 73
2
 74
0
 40
0.107024
 40
0.107024
 40
0.114217
 40
0.114217
 10
26.3363
 20
22.6505
 30
0
 10
26.4232
 20
22.6445
 30
0
  0
SPLINE
  5
A21
330
A02
100
AcDbEntity
  8
ProjItem
100
AcDbSpline
210
0
220
0
230
1
 70
8
 71
1
 72
4
 73
2
 74
0
 40
0.143642
 40
0.143642
 40
0.149244
 40
0.149244
 10
26.7592
 20
22.6181
 30
0
 10
26.8189
 20
22.6129
 30
0
  0
LINE
  5
A22
330
A02
100
AcDbEntity
  8
ProjItem
100
AcDbLine
 10
117.18
 20
65.0497
 30
0
 11
4.68012
 21
65.0497
 31
0
  0
LINE
  5
A23
330
A02
100
AcDbEntity
  8
ProjItem
100
AcDbLine
 10
117.18
 20
22.5497
 30
0
 11
27.4301
 21
22.5497
 31
0
  0
LINE
  5
A24
330
A02
100
AcDbEntity
  8
ProjItem
100
AcDbLine
 10
22.4301
 20
22.5497
 30
0
 11
4.68012
 21
22.5497
 31
0
  0
SPLINE
  5
A25
330
A02
100
AcDbEntity
  8
ProjItem001
100
AcDbSpline
210
0
220
0
230
1
 70
8
 71
1
 72
17
 73
15
 74
0
 40
3.14159
 40
3.14159
 40
3.36599
 40
3.59039
 40
3.81479
 40
4.03919
 40
4.26359
 40
4.48799
 40
4.71239
 40
4.93679
 40
5.16119
 40
5.38559
 40
5.60999
 40
5.83439
 40
6.05879
 40
6.28319
 40
6.28319
 10
4.68012
 20
134.411
 30
0
 10
4.68012
 20
133.878
 30
0
 10
4.68012
 20
132.307
 30
0
 10
4.68012
 20
129.775
 30
0
 10
4.68012
 20
126.41
 30
0
 10
4.68012
 20
122.381
 30
0
 10
4.68012
 20
117.89
 30
0
 10
4.68012
 20
113.161
 30
0
 10
4.68012
 20
108.433
 30
0
 10
4.68012
 20
103.941
 30
0
 10
4.68012
 20
99.9121
 30
0
 10
4.68012
 20
96.5474
 30
0
 10
4.68012
 20
94.0157
 30
0
 10
4.68012
 20
92.4441
 30
0
 10
4.68012
 20
91.9113
 30
0
  0
LINE
  5
A26
330
A02
100
AcDbEntity
  8
ProjItem001
100
AcDbLine
 10
4.68012
 20
91.9113
 30
0
 11
117.18
 21
91.9113
 31
0
  0
SPLINE
  5
A27
330
A02
100
AcDbEntity
  8
ProjItem001
100
AcDbSpline
210
0
220
0
230
1
 70
8
 71
1
 72
17
 73
15
 74
0
 40
3.14159
 40
3.14159
 40
3.36599
 40
3.59039
 40
3.81479
 40
4.03919
 40
4.26359
 40
4.48799
 40
4.71239
 40
4.93679
 40
5.16119
 40
5.38559
 40
5.60999
 40
5.83439
 40
6.05879
 40
6.28319
 40
6.28319
 10
117.18
 20
134.411
 30
0
 10
117.18
 20
133.878
 30
0
 10
117.18
 20
132.307
 30
0
 10
117.18
 20
129.775
 30
0
 10
117.18
 20
126.41
 30
0
 10
117.18
 20
122.381
 30
0
 10
117.18
 20
117.89
 30
0
 10
117.18
 20
113.161
 30
0
 10
117.18
 20
108.433
 30
0
 10
117.18
 20
103.941
 30
0
 10
117.18
 20
99.9121
 30
0
 10
117.18
 20
96.5474
 30
0
 10
117.18
 20
94.0157
 30
0
 10
117.18
 20
92.4441
 30
0
 10
117.18
 20
91.9113
 30
0
  0
SPLINE
  5
A28
330
A02
100
AcDbEntity
  8
ProjItem001
100
AcDbSpline
210
0
220
0
230
1
 70
8
 71
3
 72
14
 73
10
 74
0
 40
0.749872
 40
0.749872
 40
0.749872
 40
0.749872
 40
0.827584
 40
0.827584
 40
0.827584
 40
0.913792
 40
0.913792
 40
0.913792
 40
1
 40
1
 40
1
 40
1
 10
22.4301
 20
113.161
 30
0
 10
22.4282
 20
112.66
 30
0
 10
22.5873
 20
112.181
 30
0
 10
22.8229
 20
111.816
 30
0
 10
23.0832
 20
111.41
 30
0
 10
23.4262
 20
111.123
 30
0
 10
23.7894
 20
110.937
 30
0
 10
24.1541
 20
110.75
 30
0
 10
24.5418
 20
110.662
 30
0
 10
24.9301
 20
110.661
 30
0
  0
SPLINE
  5
A29
330
A02
100
AcDbEntity
  8
ProjItem001
100
AcDbSpline
210
0
220
0
230
1
 70
8
 71
3
 72
23
 73
19
 74
0
 40
0.249052
 40
0.249052
 40
0.249052
 40
0.249052
 40
0.326829
 40
0.326829
 40
0.326829
 40
0.430017
 40
0.430017
 40
0.430017
 40
0.499452
 40
0.499452
 40
0.499452
 40
0.596412
 40
0.596412
 40
0.596412
 40
0.672104
 40
0.672104
 40
0.672104
 40
0.749872
 40
0.749872
 40
0.749872
 40
0.749872
 10
27.4301
 20
113.161
 30
0
 10
27.4321
 20
113.662
 30
0
 10
27.2729
 20
114.142
 30
0
 10
27.0374
 20
114.506
 30
0
 10
26.7251
 20
114.992
 30
0
 10
26.2985
 20
115.307
 30
0
 10
25.8546
 20
115.484
 30
0
 10
25.5523
 20
115.603
 30
0
 10
25.2442
 20
115.662
 30
0
 10
24.9301
 20
115.661
 30
0
 10
24.4948
 20
115.661
 30
0
 10
24.0577
 20
115.549
 30
0
 10
23.6561
 20
115.312
 30
0
 10
23.3437
 20
115.127
 30
0
 10
23.0509
 20
114.863
 30
0
 10
22.8229
 20
114.506
 30
0
 10
22.5873
 20
114.142
 30
0
 10
22.428
 20
113.661
 30
0
 10
22.4301
 20
113.161
 30
0
  0
SPLINE
  5
A2A
330
A02
100
AcDbEntity
  8
ProjItem001
100
AcDbSpline
210
0
220
0
230
1
 70
8
 71
3
 72
14
 73
10
 74
0
 40
0
 40
0
 40
0
 40
0
 40
0.12994
 40
0.12994
 40
0.12994
 40
0.203307
 40
0.203307
 40
0.203307
 40
0.249052
 40
0.249052
 40
0.249052
 40
0.249052
 10
24.9301
 20
110.661
 30
0
 10
25.516
 20
110.663
 30
0
 10
26.1107
 20
110.862
 30
0
 10
26.6071
 20
111.307
 30
0
 10
26.8853
 20
111.559
 30
0
 10
27.1315
 20
111.896
 30
0
 10
27.2825
 20
112.315
 30
0
 10
27.3768
 20
112.576
 30
0
 10
27.4306
 20
112.868
 30
0
 10
27.4301
 20
113.161
 30
0
  0
SPLINE
  5
A2B
330
A02
100
AcDbEntity
  8
ProjItem001
100
AcDbSpline
210
0
220
0
230
1
 70
8
 71
3
 72
17
 73
13
 74
0
 40
0
 40
0
 40
0
 40
0
 40
0.129935
 40
0.129935
 40
0.129935
 40
0.203309
 40
0.203309
 40
0.203309
 40
0.250497
 40
0.250497
 40
0.250497
 40
0.31178
 40
0.31178
 40
0.31178
 40
0.31178
 10
24.9301
 20
110.661
 30
0
 10
25.5161
 20
110.663
 30
0
 10
26.1108
 20
110.862
 30
0
 10
26.6071
 20
111.307
 30
0
 10
26.8853
 20
111.559
 30
0
 10
27.1315
 20
111.896
 30
0
 10
27.2825
 20
112.315
 30
0
 10
27.3798
 20
112.584
 30
0
 10
27.4338
 20
112.886
 30
0
 10
27.43
 20
113.189
 30
0
 10
27.4263
 20
113.583
 30
0
 10
27.3256
 20
113.964
 30
0
 10
27.1646
 20
114.282
 30
0
  0
SPLINE
  5
A2C
330
A02
100
AcDbEntity
  8
ProjItem001
100
AcDbSpline
210
0
220
0
230
1
 70
8
 71
3
 72
8
 73
4
 74
0
 40
0.401609
 40
0.401609
 40
0.401609
 40
0.401609
 40
0.55634
 40
0.55634
 40
0.55634
 40
0.55634
 10
26.2154
 20
115.306
 30
0
 10
25.5746
 20
115.685
 30
0
 10
24.8468
 20
115.756
 30
0
 10
24.1696
 20
115.543
 30
0
  0
SPLINE
  5
A2D
330
A02
100
AcDbEntity
  8
ProjItem001
100
AcDbSpline
210
0
220
0
230
1
 70
8
 71
3
 72
20
 73
16
 74
0
 40
0.596593
 40
0.596593
 40
0.596593
 40
0.596593
 40
0.672112
 40
0.672112
 40
0.672112
 40
0.751323
 40
0.751323
 40
0.751323
 40
0.827588
 40
0.827588
 40
0.827588
 40
0.913794
 40
0.913794
 40
0.913794
 40
1
 40
1
 40
1
 40
1
 10
23.6538
 20
115.311
 30
0
 10
23.3422
 20
115.126
 30
0
 10
23.0503
 20
114.862
 30
0
 10
22.8229
 20
114.506
 30
0
 10
22.5829
 20
114.135
 30
0
 10
22.4224
 20
113.643
 30
0
 10
22.4303
 20
113.133
 30
0
 10
22.4339
 20
112.642
 30
0
 10
22.5918
 20
112.174
 30
0
 10
22.8229
 20
111.816
 30
0
 10
23.0832
 20
111.41
 30
0
 10
23.4261
 20
111.124
 30
0
 10
23.7893
 20
110.937
 30
0
 10
24.154
 20
110.75
 30
0
 10
24.5418
 20
110.662
 30
0
 10
24.9301
 20
110.661
 30
0
  0
LINE
  5
A2E
330
A02
100
AcDbEntity
  8
ProjItem001
100
AcDbLine
 10
117.18
 20
134.411
 30
0
 11
4.68012
 21
134.411
 31
0
  0
CIRCLE
  5
A2F
330
A02
100
AcDbEntity
  8
ProjItem002
100
AcDbCircle
 10
153.43
 20
43.7997
 40
21.25
  0
SPLINE
  5
A30
330
A02
100
AcDbEntity
  8
ProjItem002
100
AcDbSpline
210
0
220
0
230
1
 70
8
 71
3
 72
11
 73
7
 74
0
 40
0.749872
 40
0.749872
 40
0.749872
 40
0.749872
 40
0.827584
 40
0.827584
 40
0.827584
 40
1
 40
1
 40
1
 40
1
 10
153.43
 20
22.5497
 30
0
 10
152.929
 20
22.5493
 30
0
 10
152.45
 20
22.5688
 30
0
 10
152.085
 20
22.5923
 30
0
 10
151.275
 20
22.6469
 30
0
 10
150.934
 20
22.6996
 30
0
 10
150.93
 20
22.6972
 30
0
  0
DIMENSION
  5
A31
330
A02
100
AcDbEntity
  8
Dimension001
100
AcDbDimension
  2
*Dimension001
 10
174.089
 20
48.777
 30
0
 11
195.622
 21
61.0416
 31
0
 70
3
  1
⌀170
  3
STANDARD
100
AcDbDiametricDimension
 15
132.771
 25
38.8224
 35
0
 40
0
  0
TEXT
  5
A39
330
A02
100
AcDbEntity
  8
Annotation
100
AcDbText
 10
39.3502
 20
115.014
 30
0
 40
5
  1
⌀20
  7
STANDARD
 72
1
 11
39.3502
 21
115.014
 31
0
100
AcDbText
  0
DIMENSION
  5
A3A
330
A02
100
AcDbEntity
  8
Dimension
100
AcDbDimension
  2
*Dimension
 10
56.7418
 20
154.811
 30
0
 11
56.7418
 21
149.811
 31
0
 70
1
  1
450
  3
STANDARD
100
AcDbAlignedDimension
 13
117.18
 23
134.411
 33
0
 14
4.68012
 24
134.411
 34
0
  0
TEXT
  5
A44
330
A02
100
AcDbEntity
  8
Annotation001
100
AcDbText
 10
97.2286
 20
182.858
 30
0
 40
11
  1
Thin-Walled Pressure Vessel
  7
STANDARD
 72
1
 11
97.2286
 21
182.858
 31
0
100
AcDbText
  0
ENDSEC
  0
SECTION
  2
OBJECTS
  0
DICTIONARY
  5
F000
330
0
100
AcDbDictionary
  3
ACAD_GROUP
350
F001
  0
DICTIONARY
  5
F001
330
F000
100
AcDbDictionary
  0
ENDSEC
  0
EOF